<?xml version="1.0" encoding="UTF-8"?>
<svg version="1.1" xmlns="http://www.w3.org/2000/svg" width="32" height="32">
<path d="M0 0 C2.64 0 5.28 0 8 0 C10.00678401 3.62128443 12.0042648 7.24761643 14 10.875 C14.57234375 11.90753906 15.1446875 12.94007812 15.734375 14.00390625 C16.27578125 14.99003906 16.8171875 15.97617187 17.375 16.9921875 C18.12910156 18.35899658 18.12910156 18.35899658 18.8984375 19.75341797 C20 22 20 22 20 24 C17.36 24 14.72 24 12 24 C11.67 23.01 11.34 22.02 11 21 C9.02 21 7.04 21 5 21 C5 17.33333333 5 13.66666667 5 10 C4.34 10 3.68 10 3 10 C2.34 11.65 1.68 13.3 1 15 C1.66 15 2.32 15 3 15 C3 16.98 3 18.96 3 21 C2.030625 21.12375 1.06125 21.2475 0.0625 21.375 C-0.948125 21.58125 -1.95875 21.7875 -3 22 C-3.33 22.66 -3.66 23.32 -4 24 C-6.64 24 -9.28 24 -12 24 C-10.42195846 18.39523177 -7.73583615 13.64949374 -4.875 8.625 C-4.17310547 7.37783203 -4.17310547 7.37783203 -3.45703125 6.10546875 C-2.30929451 4.06765046 -1.15686718 2.03264431 0 0 Z " fill="#0FB8BE" transform="translate(12,4)"/>
<path d="M0 0 C7 8.20689655 7 8.20689655 7 13 C4.36 13 1.72 13 -1 13 C-1.33 12.01 -1.66 11.02 -2 10 C-3.98 10 -5.96 10 -8 10 C-8.36305732 4.55414013 -8.36305732 4.55414013 -6.8125 2.1875 C-4.57968261 0.72461964 -2.62655933 0.35494045 0 0 Z " fill="#1A85B3" transform="translate(25,15)"/>
<path d="M0 0 C3.5 0.3125 3.5 0.3125 6.5 1.3125 C6.5 3.2925 6.5 5.2725 6.5 7.3125 C5.530625 7.43625 4.56125 7.56 3.5625 7.6875 C2.0465625 7.996875 2.0465625 7.996875 0.5 8.3125 C0.17 8.9725 -0.16 9.6325 -0.5 10.3125 C-3.14 10.3125 -5.78 10.3125 -8.5 10.3125 C-5.60087536 0.50007816 -5.60087536 0.50007816 0 0 Z " fill="#1C79B2" transform="translate(8.5,17.6875)"/>
<path d="M0 0 C2.64 0 5.28 0 8 0 C8.33 1.65 8.66 3.3 9 5 C7.5422647 5.335939 6.08378894 5.66866624 4.625 6 C3.40683594 6.2784375 3.40683594 6.2784375 2.1640625 6.5625 C-0 7 -0 7 -2 7 C-1.125 2.25 -1.125 2.25 0 0 Z " fill="#0BCAC2" transform="translate(12,4)"/>
<path d="M0 0 C0.66 1.98 1.32 3.96 2 6 C-0.64 6 -3.28 6 -6 6 C-6.33 5.01 -6.66 4.02 -7 3 C-7.99 2.67 -8.98 2.34 -10 2 C-7.75858472 -0.24141528 -3.06492894 0 0 0 Z " fill="#1D71B0" transform="translate(30,22)"/>
<path d="M0 0 C6.625 -0.125 6.625 -0.125 10 1 C10 1.66 10 2.32 10 3 C5.9472484 3.98248524 2.16138263 4.08159574 -2 4 C-1.34 2.68 -0.68 1.36 0 0 Z " fill="#178FB6" transform="translate(5,18)"/>
<path d="M0 0 C0.66 0.33 1.32 0.66 2 1 C3.99960012 1.039992 6.00047242 1.04346799 8 1 C7.34 2.65 6.68 4.3 6 6 C3.36 5.67 0.72 5.34 -2 5 C-1.34 3.35 -0.68 1.7 0 0 Z " fill="#13A3BA" transform="translate(7,13)"/>
<path d="M0 0 C0.66 1.32 1.32 2.64 2 4 C-0.31 4.33 -2.62 4.66 -5 5 C-5.66 4.01 -6.32 3.02 -7 2 C-4.69 1.34 -2.38 0.68 0 0 Z " fill="#1698B8" transform="translate(25,15)"/>
<path d="M0 0 C0 0.99 0 1.98 0 3 C-2.31 3.33 -4.62 3.66 -7 4 C-7.33 2.68 -7.66 1.36 -8 0 C-2.25 -1.125 -2.25 -1.125 0 0 Z " fill="#12A9BB" transform="translate(25,13)"/>
<path d="M0 0 C2.64 0 5.28 0 8 0 C7.67 0.66 7.34 1.32 7 2 C4.35139573 2.59355614 1.70802678 2.74209269 -1 3 C-0.67 2.01 -0.34 1.02 0 0 Z " fill="#08D9C5" transform="translate(12,4)"/>
</svg>
